<svg id="Layer_1" data-name="Layer 1" xmlns="http://www.w3.org/2000/svg" viewBox="0 0 79.68 10.22"><path d="M33.78,12.9a2.82,2.82,0,0,1-1.18,1,4.18,4.18,0,0,1-1.88.39A4.46,4.46,0,0,1,28,13.53a2.9,2.9,0,0,1-1.17-2.27h2.54a1.42,1.42,0,0,0,.4.89,1.25,1.25,0,0,0,.88.32,1.06,1.06,0,0,0,.73-.25.93.93,0,0,0,.26-.68.88.88,0,0,0-.24-.63,2.25,2.25,0,0,0-.61-.41c-.24-.11-.58-.23-1-.38a13.09,13.09,0,0,1-1.53-.63,2.79,2.79,0,0,1-1-.89,2.56,2.56,0,0,1-.43-1.55,2.61,2.61,0,0,1,.45-1.53,2.91,2.91,0,0,1,1.24-1,4.46,4.46,0,0,1,1.81-.35A4.05,4.05,0,0,1,32.89,5,3,3,0,0,1,34,7.13H31.4a1.29,1.29,0,0,0-.35-.77,1.07,1.07,0,0,0-.78-.29,1,1,0,0,0-.68.22.84.84,0,0,0-.26.66.86.86,0,0,0,.23.6,2.06,2.06,0,0,0,.58.4l1,.39A10.15,10.15,0,0,1,32.7,9a2.91,2.91,0,0,1,1,.91,2.63,2.63,0,0,1,.43,1.57A2.78,2.78,0,0,1,33.78,12.9Z" transform="translate(-26.77 -4.19)"/><path d="M37.9,10.77v3.48H35.5V4.35h3.88a3.78,3.78,0,0,1,2.69.87A3.09,3.09,0,0,1,43,7.58a3.21,3.21,0,0,1-.41,1.65,2.79,2.79,0,0,1-1.22,1.13,4.26,4.26,0,0,1-2,.41Zm2.66-3.19c0-.87-.48-1.3-1.44-1.3H37.9V8.86h1.22C40.08,8.86,40.56,8.43,40.56,7.58Z" transform="translate(-26.77 -4.19)"/><path d="M51.42,4.85a4.62,4.62,0,0,1,1.79,1.8,5.17,5.17,0,0,1,.66,2.61,5.2,5.2,0,0,1-.66,2.62,4.77,4.77,0,0,1-1.81,1.81,5.23,5.23,0,0,1-5,0,4.7,4.7,0,0,1-1.81-1.81,5.2,5.2,0,0,1-.66-2.62,5.17,5.17,0,0,1,.66-2.61,4.74,4.74,0,0,1,1.81-1.8,4.94,4.94,0,0,1,2.52-.66A5,5,0,0,1,51.42,4.85ZM47,7.18a3,3,0,0,0-.7,2.08,2.93,2.93,0,0,0,.7,2.07,2.35,2.35,0,0,0,1.86.77,2.39,2.39,0,0,0,1.87-.77,3,3,0,0,0,.7-2.07,2.93,2.93,0,0,0-.7-2.07,2.66,2.66,0,0,0-3.73,0Z" transform="translate(-26.77 -4.19)"/><path d="M60.3,14.25l-2.14-3.74h-.55v3.74H55.22V4.35H59.3a4.41,4.41,0,0,1,2,.4,2.89,2.89,0,0,1,1.22,1.12,3.19,3.19,0,0,1,.41,1.61,2.88,2.88,0,0,1-.6,1.84,3,3,0,0,1-1.73,1l2.35,3.9ZM57.61,8.87h1.48a1.48,1.48,0,0,0,1-.31,1.2,1.2,0,0,0,.34-.94,1.21,1.21,0,0,0-.34-.92,1.47,1.47,0,0,0-1-.34H57.61Z" transform="translate(-26.77 -4.19)"/><path d="M71.23,4.35v1.9H68.54v8h-2.4v-8H63.48V4.35Z" transform="translate(-26.77 -4.19)"/><path d="M86.74,4.44l-2.83,9.81H83L80.93,7c-.05-.17-.09-.34-.12-.5a2.48,2.48,0,0,1,0-.45h0a2.55,2.55,0,0,1-.07.43c0,.15-.08.32-.13.51l-2.21,7.31h-.87L74.56,4.44h1l2.17,7.72q.07.25.12.48c0,.16,0,.3.07.44h0c0-.1,0-.23.08-.38a4,4,0,0,1,.15-.53l2.32-7.73h.64l2.17,7.74c0,.16.09.32.12.46s0,.29.07.43h0c0-.08,0-.18.05-.29a3,3,0,0,1,.09-.35l2.18-8Z" transform="translate(-26.77 -4.19)"/><path d="M89.3,14.25h-.86V4.44h.86Z" transform="translate(-26.77 -4.19)"/><path d="M91.28,13.45l.45-.65a4.18,4.18,0,0,0,1.17.63,4.33,4.33,0,0,0,1.34.2,2.32,2.32,0,0,0,1.55-.51,1.77,1.77,0,0,0,.61-1.43,1.62,1.62,0,0,0-.48-1.21,4.39,4.39,0,0,0-1.58-.86,5.21,5.21,0,0,1-2-1.11,2.19,2.19,0,0,1-.63-1.61A2.42,2.42,0,0,1,92.48,5a3.18,3.18,0,0,1,2.16-.71,4.3,4.3,0,0,1,1.18.16A5,5,0,0,1,97,5l-.42.67a4,4,0,0,0-1-.42,3.58,3.58,0,0,0-1.06-.14,2.22,2.22,0,0,0-1.46.47,1.56,1.56,0,0,0-.56,1.28A1.5,1.5,0,0,0,93,8a5.12,5.12,0,0,0,1.66.86,4.79,4.79,0,0,1,2,1.11,2.32,2.32,0,0,1,.6,1.66,2.71,2.71,0,0,1-.81,2.05,3.14,3.14,0,0,1-2.25.78,4.8,4.8,0,0,1-1.55-.24A4.45,4.45,0,0,1,91.28,13.45Z" transform="translate(-26.77 -4.19)"/><path d="M106.45,14.25h-.87V9.63h-5.4v4.62h-.86V4.44h.86V8.86h5.4V4.44h.87Z" transform="translate(-26.77 -4.19)"/></svg>